<svg width="1200" height="900" viewBox="0 0 1200 900" fill="none" xmlns="http://www.w3.org/2000/svg">
  <rect width="1200" height="900" fill="#f8fafc"/>
  <rect x="86" y="84" width="1028" height="732" fill="#ffffff" stroke="#e2e8f0" stroke-width="2"/>
  <rect x="136" y="148" width="928" height="548" fill="#f1f5f9"/>
  <ellipse cx="600" cy="704" rx="330" ry="34" fill="#d8dee7"/>
  <rect x="264" y="286" width="430" height="270" rx="38" fill="#111827"/>
  <path d="M344 287c0-74 60-134 134-134s134 60 134 134h-44c0-50-40-90-90-90s-90 40-90 90h-44Z" fill="#2b3445"/>
  <rect x="320" y="342" width="318" height="38" rx="19" fill="#f8fafc" opacity=".9"/>
  <rect x="320" y="420" width="196" height="24" rx="12" fill="#b65f2a"/>
  <rect x="724" y="254" width="230" height="302" rx="34" fill="#334155"/>
  <path d="M768 254c0-42 34-76 76-76s76 34 76 76h-34c0-23-19-42-42-42s-42 19-42 42h-34Z" fill="#64748b"/>
  <rect x="764" y="340" width="150" height="20" rx="10" fill="#f8fafc" opacity=".88"/>
  <rect x="154" y="724" width="206" height="2" fill="#cbd5e1"/>
  <rect x="418" y="724" width="206" height="2" fill="#cbd5e1"/>
  <rect x="682" y="724" width="206" height="2" fill="#cbd5e1"/>
  <rect x="174" y="742" width="112" height="12" rx="6" fill="#94a3b8"/>
  <rect x="438" y="742" width="140" height="12" rx="6" fill="#b65f2a"/>
  <rect x="702" y="742" width="128" height="12" rx="6" fill="#94a3b8"/>
  <rect x="930" y="628" width="98" height="98" fill="#ffffff" stroke="#cbd5e1" stroke-width="2"/>
  <rect x="950" y="650" width="58" height="10" rx="5" fill="#111827"/>
  <rect x="950" y="676" width="44" height="8" rx="4" fill="#b65f2a"/>
  <rect x="950" y="700" width="36" height="8" rx="4" fill="#94a3b8"/>
</svg>
