<svg width="1200" height="900" viewBox="0 0 1200 900" fill="none" xmlns="http://www.w3.org/2000/svg">
  <rect width="1200" height="900" fill="#f4f4f2"/>
  <rect x="72" y="70" width="1056" height="760" fill="#ffffff" stroke="#deded8" stroke-width="2"/>
  <rect x="120" y="126" width="960" height="570" fill="#eeeeeb"/>
  <path d="M120 226h960M120 326h960M120 426h960M120 526h960M120 626h960" stroke="#deded8" stroke-width="2"/>
  <path d="M230 126v570M402 126v570M574 126v570M746 126v570M918 126v570" stroke="#deded8" stroke-width="2"/>
  <rect x="168" y="176" width="142" height="86" fill="#d7d7d1"/>
  <rect x="344" y="184" width="168" height="72" fill="#c8c9c1"/>
  <rect x="614" y="174" width="188" height="92" fill="#dcdcd6"/>
  <rect x="844" y="184" width="154" height="72" fill="#c1c3bc"/>
  <rect x="156" y="356" width="206" height="144" rx="18" fill="#171917"/>
  <path d="M208 356c0-48 39-87 87-87s87 39 87 87h-28c0-33-26-59-59-59s-59 26-59 59h-28Z" fill="#3f423c"/>
  <rect x="202" y="420" width="114" height="18" rx="9" fill="#f7f7f5"/>
  <rect x="202" y="456" width="80" height="14" rx="7" fill="#9f5d2f"/>
  <rect x="456" y="306" width="184" height="242" rx="22" fill="#2b2e2a"/>
  <path d="M502 306c0-44 36-80 80-80s80 36 80 80h-26c0-30-24-54-54-54s-54 24-54 54h-26Z" fill="#565951"/>
  <rect x="498" y="394" width="92" height="14" rx="7" fill="#f7f7f5"/>
  <rect x="498" y="426" width="118" height="12" rx="6" fill="#9f5d2f"/>
  <rect x="738" y="358" width="206" height="138" rx="20" fill="#42453f"/>
  <path d="M788 358c0-40 33-73 73-73s73 33 73 73h-24c0-27-22-49-49-49s-49 22-49 49h-24Z" fill="#6f726a"/>
  <rect x="784" y="418" width="112" height="16" rx="8" fill="#f7f7f5"/>
  <rect x="784" y="452" width="70" height="12" rx="6" fill="#9f5d2f"/>
  <rect x="156" y="620" width="790" height="2" fill="#b8b9b2"/>
  <rect x="174" y="650" width="156" height="12" rx="6" fill="#8d9088"/>
  <rect x="382" y="650" width="192" height="12" rx="6" fill="#9f5d2f"/>
  <rect x="626" y="650" width="150" height="12" rx="6" fill="#8d9088"/>
  <rect x="880" y="590" width="128" height="128" fill="#ffffff" stroke="#c9c9c3" stroke-width="2"/>
  <rect x="908" y="626" width="72" height="10" rx="5" fill="#171917"/>
  <rect x="908" y="654" width="58" height="8" rx="4" fill="#9f5d2f"/>
  <rect x="908" y="680" width="44" height="8" rx="4" fill="#8d9088"/>
  <rect x="72" y="770" width="1056" height="60" fill="#171917"/>
  <rect x="120" y="792" width="220" height="10" rx="5" fill="#eeeeeb" opacity=".72"/>
  <rect x="380" y="792" width="180" height="10" rx="5" fill="#eeeeeb" opacity=".42"/>
  <rect x="600" y="792" width="146" height="10" rx="5" fill="#9f5d2f"/>
</svg>
