<svg width="900" height="675" viewBox="0 0 900 675" fill="none" xmlns="http://www.w3.org/2000/svg">
  <rect width="900" height="675" fill="#f4f4f2"/>
  <rect x="70" y="72" width="760" height="510" fill="#ffffff" stroke="#deded8" stroke-width="2"/>
  <rect x="138" y="154" width="624" height="348" fill="#eeeeeb"/>
  <ellipse cx="450" cy="516" rx="236" ry="24" fill="#d8dee7"/>
  <rect x="244" y="220" width="244" height="276" rx="34" fill="#171917"/>
  <path d="M304 220c0-50 40-90 90-90s90 40 90 90h-36c0-30-24-54-54-54s-54 24-54 54h-36Z" fill="#42453f"/>
  <rect x="536" y="238" width="118" height="118" fill="#ffffff" stroke="#b8b9b2" stroke-width="2"/>
  <rect x="676" y="238" width="72" height="118" fill="#9f5d2f"/>
  <rect x="536" y="392" width="212" height="22" rx="11" fill="#171917"/>
  <rect x="536" y="444" width="152" height="18" rx="9" fill="#8d9088"/>
  <rect x="156" y="540" width="588" height="2" fill="#b8b9b2"/>
</svg>
