<svg width="900" height="675" viewBox="0 0 900 675" fill="none" xmlns="http://www.w3.org/2000/svg">
  <rect width="900" height="675" fill="#f8fafc"/>
  <rect x="70" y="72" width="760" height="510" fill="#ffffff" stroke="#e2e8f0" stroke-width="2"/>
  <rect x="138" y="154" width="624" height="348" fill="#f1f5f9"/>
  <ellipse cx="450" cy="516" rx="236" ry="24" fill="#d8dee7"/>
  <rect x="244" y="220" width="244" height="276" rx="34" fill="#111827"/>
  <path d="M304 220c0-50 40-90 90-90s90 40 90 90h-36c0-30-24-54-54-54s-54 24-54 54h-36Z" fill="#334155"/>
  <rect x="536" y="238" width="118" height="118" fill="#ffffff" stroke="#cbd5e1" stroke-width="2"/>
  <rect x="676" y="238" width="72" height="118" fill="#b65f2a"/>
  <rect x="536" y="392" width="212" height="22" rx="11" fill="#111827"/>
  <rect x="536" y="444" width="152" height="18" rx="9" fill="#94a3b8"/>
  <rect x="156" y="540" width="588" height="2" fill="#cbd5e1"/>
</svg>
