<svg width="900" height="675" viewBox="0 0 900 675" fill="none" xmlns="http://www.w3.org/2000/svg">
  <rect width="900" height="675" fill="#f4f4f2"/>
  <rect x="70" y="72" width="760" height="510" fill="#ffffff" stroke="#deded8" stroke-width="2"/>
  <rect x="138" y="154" width="624" height="348" fill="#eeeeeb"/>
  <ellipse cx="450" cy="514" rx="258" ry="26" fill="#d8dee7"/>
  <rect x="214" y="286" width="472" height="178" rx="44" fill="#171917"/>
  <path d="M318 286c0-72 58-130 130-130s130 58 130 130h-42c0-49-39-88-88-88s-88 39-88 88h-42Z" fill="#42453f"/>
  <rect x="278" y="346" width="292" height="30" rx="15" fill="#f4f4f2"/>
  <rect x="278" y="408" width="184" height="20" rx="10" fill="#9f5d2f"/>
  <circle cx="296" cy="485" r="23" fill="#565951"/>
  <circle cx="604" cy="485" r="23" fill="#565951"/>
  <rect x="156" y="540" width="588" height="2" fill="#b8b9b2"/>
</svg>
